<svg xmlns="http://www.w3.org/2000/svg" viewBox="0 0 153.43 31.49"><defs><style>.cls-1{fill:#fff;}</style></defs><title>Asset 15</title><g id="Layer_2" data-name="Layer 2"><g id="Layer_1-2" data-name="Layer 1"><path class="cls-1" d="M7,11.4,5.16,7.62H3.9V11.4h-3V.2h5A7.16,7.16,0,0,1,7.66.4,3.65,3.65,0,0,1,9,1a2.86,2.86,0,0,1,.89,1.13,4,4,0,0,1,.31,1.68A3.64,3.64,0,0,1,9.7,5.91,3.46,3.46,0,0,1,8.22,7.12l2.24,4.28ZM6.84,3.06a1.41,1.41,0,0,0-1-.34H3.9V5.17H5.74a1.48,1.48,0,0,0,1.09-.32,1.22,1.22,0,0,0,.32-.93A1.2,1.2,0,0,0,6.84,3.06Z"/><path class="cls-1" d="M12.32,11.4V.2H20.9V2.8H15.39V4.31h3.32V6.87H15.39V8.79H21V11.4Z"/><path class="cls-1" d="M32.29,8.4a4.06,4.06,0,0,1-1.15,1.74,4.81,4.81,0,0,1-1.9,1,10.21,10.21,0,0,1-2.62.3H23V.2h3.92A9.82,9.82,0,0,1,29.3.47a4.32,4.32,0,0,1,1.81.92,4.29,4.29,0,0,1,1.16,1.7,7.48,7.48,0,0,1,.4,2.64A8.21,8.21,0,0,1,32.29,8.4ZM29.35,4.45a2,2,0,0,0-.44-.91,1.8,1.8,0,0,0-.8-.52,3.83,3.83,0,0,0-1.21-.17h-.77V8.74h.67A4.4,4.4,0,0,0,28,8.59a1.87,1.87,0,0,0,.84-.5,1.93,1.93,0,0,0,.47-.91,5.6,5.6,0,0,0,.15-1.4A5.77,5.77,0,0,0,29.35,4.45Z"/><path class="cls-1" d="M46.48,11.4V7H43V11.4H39.82V.2H43V4.28h3.49V.2h3.17V11.4Z"/><path class="cls-1" d="M59.15,11.4l-.61-2H55.18l-.6,2H51.25L55.31.2h3.14l4.06,11.2ZM57.58,6.23c-.09-.36-.18-.68-.25-1s-.14-.5-.2-.72S57,4.16,57,4a4.86,4.86,0,0,1-.11-.55L56.75,4c0,.18-.09.38-.15.59s-.13.45-.2.72-.16.58-.26.93l-.2.73h1.85Z"/><path class="cls-1" d="M68.37,2.9v8.5H65.26V2.9H62.13V.2H71.5V2.9Z"/><path class="cls-1" d="M74.78,1.73a1.16,1.16,0,0,1-.26.39,1.31,1.31,0,0,1-.4.26,1.28,1.28,0,0,1-1,0,1.31,1.31,0,0,1-.4-.26,1.16,1.16,0,0,1-.26-.39,1.33,1.33,0,0,1-.09-.49,1.3,1.3,0,0,1,.09-.49,1.31,1.31,0,0,1,.26-.4,1.53,1.53,0,0,1,.4-.26A1.33,1.33,0,0,1,73.62,0a1.35,1.35,0,0,1,.5.09,1.53,1.53,0,0,1,.4.26,1.31,1.31,0,0,1,.26.4,1.3,1.3,0,0,1,.1.49A1.34,1.34,0,0,1,74.78,1.73Zm-.2-.9a1.21,1.21,0,0,0-.22-.32A.93.93,0,0,0,74,.3a1.07,1.07,0,0,0-.41-.08,1.06,1.06,0,0,0-.4.08.93.93,0,0,0-.33.21,1.21,1.21,0,0,0-.22.32,1.1,1.1,0,0,0-.07.41,1.05,1.05,0,0,0,.07.4,1.07,1.07,0,0,0,.22.32.83.83,0,0,0,.33.22,1.06,1.06,0,0,0,.4.08A1.07,1.07,0,0,0,74,2.18.83.83,0,0,0,74.36,2a1.07,1.07,0,0,0,.22-.32,1.05,1.05,0,0,0,.07-.4A1.1,1.1,0,0,0,74.58.83Zm-.44.4a.5.5,0,0,1-.19.13l.26.53h-.32l-.25-.49h-.23v.49h-.29V.54h.63a.55.55,0,0,1,.34.1.38.38,0,0,1,.13.32A.41.41,0,0,1,74.14,1.23ZM73.87.84a.2.2,0,0,0-.14,0h-.32v.35h.32c.13,0,.2-.06.2-.18A.15.15,0,0,0,73.87.84Z"/><path class="cls-1" d="M11.76,31.23,10.32,27H3.38L1.92,31.23H0l5.83-16.8H7.9l5.83,16.8ZM7.9,19.73c-.1-.27-.2-.57-.3-.89s-.21-.62-.3-.92-.18-.58-.26-.84-.13-.48-.17-.66c0,.18-.11.39-.19.65s-.15.53-.25.84-.2.62-.31.95-.22.63-.31.92L4,25.25H9.74Z"/><path class="cls-1" d="M28.43,21.66a4.55,4.55,0,0,1-1.17,1.64,4.76,4.76,0,0,1-1.8,1,7.35,7.35,0,0,1-2.3.34H19.08v6.6H17.21V14.43H23.5a7.19,7.19,0,0,1,2.12.3,4.69,4.69,0,0,1,1.69.92,4.31,4.31,0,0,1,1.13,1.57,5.67,5.67,0,0,1,.41,2.22A5.49,5.49,0,0,1,28.43,21.66ZM26.06,17a3.61,3.61,0,0,0-2.64-.88H19.08v6.79h4.1q3.8,0,3.8-3.4A3.31,3.31,0,0,0,26.06,17Z"/><path class="cls-1" d="M32.16,31.23V14.43H34v16.8Z"/><path class="cls-1" d="M56.29,26.61a7.07,7.07,0,0,1-1.69,2.65,6.47,6.47,0,0,1-2.54,1.5,10.39,10.39,0,0,1-3.15.47h-4.1V14.43h4.44a9.44,9.44,0,0,1,3.06.48,6.26,6.26,0,0,1,2.42,1.5A7.12,7.12,0,0,1,56.33,19a10.86,10.86,0,0,1,.57,3.72A11,11,0,0,1,56.29,26.61Zm-2.77-8.77a5.59,5.59,0,0,0-4.42-1.71H46.68V29.52h2.47a7.46,7.46,0,0,0,2.45-.37A4.48,4.48,0,0,0,53.45,28a5.33,5.33,0,0,0,1.17-2.1A10,10,0,0,0,55,22.78,7.19,7.19,0,0,0,53.52,17.84Z"/><path class="cls-1" d="M60.6,31.23V14.43H70.75v1.7H62.47v5.28h4.8v1.71h-4.8v6.4h8.64v1.71Z"/><path class="cls-1" d="M84.35,28.66a4.11,4.11,0,0,1-1.09,1.49,5.44,5.44,0,0,1-1.76,1,7.07,7.07,0,0,1-2.35.36A7.61,7.61,0,0,1,76,30.83a8.09,8.09,0,0,1-2.46-1.67l1.25-1.39a8.66,8.66,0,0,0,2.06,1.47,5.42,5.42,0,0,0,2.4.55A4.21,4.21,0,0,0,81.88,29a2.57,2.57,0,0,0,1-2.11,3,3,0,0,0-.19-1.06A2.46,2.46,0,0,0,82,25a6.5,6.5,0,0,0-1.24-.8,15.78,15.78,0,0,0-1.92-.8,16.17,16.17,0,0,1-2.29-1,6.19,6.19,0,0,1-1.49-1.05,3.47,3.47,0,0,1-.82-1.26A5,5,0,0,1,74,18.46a4,4,0,0,1,1.45-3.16,4.74,4.74,0,0,1,1.66-.85,7.61,7.61,0,0,1,2.15-.29,7.7,7.7,0,0,1,2.87.48A9,9,0,0,1,84.36,16l-1.2,1.47a7.65,7.65,0,0,0-1.84-1.17,5.57,5.57,0,0,0-2.19-.39,5,5,0,0,0-1.49.2,3.06,3.06,0,0,0-1,.54,2.15,2.15,0,0,0-.58.78,2.51,2.51,0,0,0-.18.95,2.83,2.83,0,0,0,.15.95,2,2,0,0,0,.57.81,5,5,0,0,0,1.22.78,18.37,18.37,0,0,0,2,.84,19.41,19.41,0,0,1,2.33,1,6.09,6.09,0,0,1,1.5,1.11,3.63,3.63,0,0,1,.8,1.32,5.21,5.21,0,0,1,.24,1.65A4.6,4.6,0,0,1,84.35,28.66Z"/><path class="cls-1" d="M88.73,31.23V14.43H90.6v16.8Z"/><path class="cls-1" d="M107,27.58a6.22,6.22,0,0,1-1.31,2.18,5.38,5.38,0,0,1-2,1.3,6.84,6.84,0,0,1-2.46.43,5.93,5.93,0,0,1-2.8-.66A6.54,6.54,0,0,1,96.26,29a8.47,8.47,0,0,1-1.36-2.74,11.75,11.75,0,0,1-.48-3.43,11.37,11.37,0,0,1,.5-3.47,8.63,8.63,0,0,1,1.4-2.74,6.58,6.58,0,0,1,2.18-1.82,5.91,5.91,0,0,1,2.78-.66,6.24,6.24,0,0,1,5.35,2.69L105.14,18a5.73,5.73,0,0,0-1.68-1.61,4.44,4.44,0,0,0-2.23-.5,4,4,0,0,0-2,.51,4.82,4.82,0,0,0-1.56,1.43,7.39,7.39,0,0,0-1,2.19,9.83,9.83,0,0,0-.37,2.8,10,10,0,0,0,.38,2.82,7.43,7.43,0,0,0,1,2.21,4.77,4.77,0,0,0,1.57,1.44,3.87,3.87,0,0,0,2,.52,4.08,4.08,0,0,0,3.22-1.27,5.51,5.51,0,0,0,1.12-3.75v-.14h-3V22.92h4.84v1.63A9,9,0,0,1,107,27.58Z"/><path class="cls-1" d="M121.29,31.23,114,19.73c-.09-.14-.2-.31-.31-.51l-.33-.6c-.12-.2-.22-.39-.33-.57a2.94,2.94,0,0,1-.22-.43V31.23H111V14.43h1.83l7.27,11.71c.09.14.2.32.31.52s.22.4.34.6l.32.56c.1.18.18.32.23.43V14.43h1.82v16.8Z"/><path class="cls-1" d="M127.46,31.23V14.43h10.16v1.7h-8.28v5.28h4.79v1.71h-4.79v6.4H138v1.71Z"/><path class="cls-1" d="M152.35,22.35a5.23,5.23,0,0,1-2.88,1.58l3.7,7.3H151l-3.6-7.15h-4v7.15h-1.87V14.43h6.65a6.84,6.84,0,0,1,2.06.29,4.54,4.54,0,0,1,1.66.87,4.22,4.22,0,0,1,1.1,1.48,5,5,0,0,1,.41,2.11A4.56,4.56,0,0,1,152.35,22.35Zm-1.67-5.44a3.71,3.71,0,0,0-2.55-.78h-4.71v6.24h4.47a4.16,4.16,0,0,0,2.77-.78,2.92,2.92,0,0,0,.9-2.35A2.93,2.93,0,0,0,150.68,16.91Z"/></g></g></svg>