<?xml version="1.0" encoding="utf-8"?>
<!-- Generator: Adobe Illustrator 22.1.0, SVG Export Plug-In . SVG Version: 6.00 Build 0)  -->
<svg version="1.1" id="Logos" xmlns="http://www.w3.org/2000/svg" xmlns:xlink="http://www.w3.org/1999/xlink" x="0px" y="0px"
	 viewBox="0 0 183.033325 27.333334" style="enable-background:new 0 0 183.033325 27.333334;" xml:space="preserve">
<style type="text/css">
	.st0{fill:#FFFFFF;}
	.st1{fill:#EE0000;}
</style>
<title>Logo-Red_Hat-Product Logo copy 2-RGB</title>
<rect x="82.400002" y="5.379247" class="st0" width="0.900002" height="17.300001"/>
<g>
	<path class="st0" d="M94.223633,18.848307l4.208984-10.124022h1.345703l4.150391,10.124022h-1.214844l-1.273438-3.18164h-4.772461
		l-1.287109,3.18164H94.223633z M97.058594,14.712077h3.991211l-1.980469-4.946289L97.058594,14.712077z"/>
	<path class="st0" d="M105.099609,18.848307V8.724284h4.397461c0.992188,0,1.786133,0.27002,2.378906,0.810059
		s0.889648,1.243652,0.889648,2.111328c0,0.868164-0.296875,1.574219-0.889648,2.119141
		c-0.592773,0.544434-1.386719,0.816895-2.378906,0.816895h-3.283203v4.266601H105.099609z M109.410156,9.722331h-3.196289v3.890625
		h3.196289c0.703125,0,1.25293-0.181152,1.648438-0.54248c0.395508-0.361816,0.592773-0.831543,0.592773-1.410156
		s-0.197266-1.045898-0.592773-1.402832C110.663086,9.901042,110.113281,9.722331,109.410156,9.722331z"/>
	<path class="st0" d="M114.457031,18.848307V8.724284h1.114258v10.124022H114.457031z"/>
	<path class="st0" d="M120.907227,18.848307V8.724284h3.34082c0.78125,0,1.5,0.130371,2.155273,0.390625
		s1.216797,0.614746,1.68457,1.062988s0.832031,0.983398,1.092773,1.605469c0.259766,0.621582,0.389648,1.289551,0.389648,2.00293
		c0,0.713867-0.129883,1.381348-0.389648,2.00293c-0.260742,0.622069-0.625,1.157226-1.092773,1.605468
		s-1.029297,0.802734-1.68457,1.062988s-1.374023,0.390625-2.155273,0.390625H120.907227z M124.306641,9.736979h-2.285156v8.09912
		h2.285156c0.578125,0,1.123047-0.103516,1.633789-0.311035s0.950195-0.491699,1.316406-0.853516
		c0.366211-0.361328,0.655273-0.790526,0.867188-1.287108c0.212891-0.496582,0.318359-1.029297,0.318359-1.598145
		s-0.105469-1.101562-0.318359-1.598145c-0.211914-0.496582-0.500977-0.925781-0.867188-1.287109
		c-0.366211-0.361816-0.805664-0.645996-1.316406-0.853516C125.429688,9.840495,124.884766,9.736979,124.306641,9.736979z"/>
	<path class="st0" d="M130.785156,15.217937c0-0.510742,0.091797-0.992676,0.275391-1.446289
		c0.182617-0.452637,0.433594-0.848145,0.751953-1.185547s0.696289-0.60498,1.134766-0.802734
		c0.439453-0.197754,0.90918-0.296387,1.410156-0.296387c0.482422,0,0.933594,0.098633,1.352539,0.296387
		c0.419922,0.197754,0.78125,0.462891,1.084961,0.79541s0.544922,0.728027,0.722656,1.186035
		c0.178711,0.458008,0.267578,0.942383,0.267578,1.453125v0.333008h-5.943359c0.076172,0.713378,0.370117,1.30664,0.881836,1.778808
		c0.510742,0.472656,1.123047,0.708496,1.836914,0.708496c0.375977,0,0.742188-0.057617,1.098633-0.17334
		s0.65625-0.279785,0.897461-0.491699l0.665039,0.708496c-0.415039,0.308594-0.841797,0.535156-1.280273,0.679688
		s-0.913086,0.217285-1.424805,0.217285c-0.520508,0-1.009766-0.09668-1.467773-0.289551s-0.853516-0.45752-1.185547-0.79541
		c-0.333008-0.337402-0.595703-0.734863-0.788086-1.193359C130.881836,16.242838,130.785156,15.748698,130.785156,15.217937z
		 M134.329102,12.426921c-0.636719,0-1.181641,0.216797-1.634766,0.650879c-0.453125,0.433594-0.727539,0.973633-0.824219,1.619629
		h4.844727c-0.095703-0.63623-0.368164-1.173828-0.816406-1.612305C135.450195,12.646159,134.926758,12.426921,134.329102,12.426921
		z"/>
	<path class="st0" d="M138.609375,17.85026l0.650391-0.694336c0.298828,0.289551,0.655273,0.523438,1.070312,0.70166
		c0.414062,0.178711,0.84375,0.267578,1.287109,0.267578c0.617188,0,1.099609-0.127441,1.446289-0.383301
		c0.347656-0.255371,0.520508-0.561523,0.520508-0.918457c0-0.308105-0.108398-0.551758-0.325195-0.730469
		c-0.216797-0.178222-0.556641-0.30078-1.019531-0.368651l-1.257812-0.17334
		c-0.694336-0.096191-1.224609-0.306152-1.591797-0.629395c-0.366211-0.322754-0.548828-0.76416-0.548828-1.323242
		c0-0.607422,0.257812-1.111328,0.773438-1.51123s1.164062-0.600098,1.945312-0.600098
		c0.520508,0,1.014648,0.079102,1.482422,0.238281s0.922852,0.397949,1.366211,0.71582l-0.563477,0.723145
		c-0.375977-0.260254-0.756836-0.459961-1.142578-0.600098c-0.385742-0.139648-0.786133-0.209473-1.200195-0.209473
		c-0.482422,0-0.882812,0.108398-1.201172,0.325195c-0.317383,0.216797-0.476562,0.508789-0.476562,0.875
		c0,0.318359,0.105469,0.55957,0.318359,0.723145c0.211914,0.164062,0.553711,0.279785,1.026367,0.347168l1.258789,0.17334
		c0.722656,0.09668,1.264648,0.311035,1.626953,0.644043c0.361328,0.33252,0.541992,0.773437,0.541992,1.323241
		c0,0.607422-0.279297,1.12793-0.838867,1.562012c-0.55957,0.433594-1.257812,0.650879-2.09668,0.650879
		c-0.588867,0-1.147461-0.099121-1.677734-0.296875C139.453125,18.484537,138.994141,18.207193,138.609375,17.85026z"/>
	<path class="st0" d="M146.318359,10.21403c-0.202148,0-0.374023-0.072266-0.513672-0.216797s-0.208984-0.313477-0.208984-0.506348
		c0-0.202637,0.069336-0.373535,0.208984-0.513184s0.311523-0.209961,0.513672-0.209961
		c0.203125,0,0.374023,0.070312,0.513672,0.209961s0.209961,0.310547,0.209961,0.513184
		c0,0.192871-0.070312,0.361816-0.209961,0.506348S146.521484,10.21403,146.318359,10.21403z M146.853516,11.602702v7.245605
		h-1.070312v-7.245605H146.853516z"/>
	<path class="st0" d="M151.944336,18.905924c-0.501953,0-0.973633-0.096191-1.417969-0.289062
		c-0.443359-0.192871-0.826172-0.455566-1.149414-0.788086s-0.578125-0.725586-0.766602-1.178711
		c-0.1875-0.453125-0.282227-0.93994-0.282227-1.460937c0-0.520508,0.094727-1.007324,0.282227-1.460449
		c0.188477-0.453125,0.443359-0.846191,0.766602-1.178711c0.323242-0.333008,0.708984-0.595215,1.157227-0.788574
		c0.448242-0.192383,0.927734-0.289062,1.438477-0.289062c0.424805,0,0.832031,0.074707,1.222656,0.224121
		s0.745117,0.359375,1.0625,0.628906v-0.722656h1.056641v7.361327c0,0.935059-0.273438,1.650879-0.817383,2.147461
		c-0.544922,0.496582-1.314453,0.745117-2.306641,0.745117c-0.501953,0-0.998047-0.064941-1.490234-0.195312
		c-0.491211-0.130371-0.939453-0.315918-1.344727-0.556641l0.462891-0.838867c0.414062,0.22168,0.80957,0.387695,1.185547,0.499023
		c0.375977,0.110352,0.756836,0.166016,1.142578,0.166016c0.68457,0,1.205078-0.164062,1.5625-0.491699
		c0.356445-0.327637,0.535156-0.810059,0.535156-1.446289v-0.925293c-0.318359,0.27002-0.670898,0.477051-1.055664,0.621582
		C152.802734,18.833658,152.387695,18.905924,151.944336,18.905924z M149.384766,15.189128
		c0,0.385742,0.066406,0.75,0.202148,1.091796c0.134766,0.342773,0.320312,0.636719,0.556641,0.882324
		c0.236328,0.246094,0.518555,0.441406,0.845703,0.585938c0.328125,0.144531,0.674805,0.216797,1.041992,0.216797
		c0.462891,0,0.886719-0.088867,1.272461-0.267578c0.385742-0.178223,0.699219-0.421387,0.94043-0.730469v-3.557616
		c-0.241211-0.298828-0.557617-0.537598-0.947266-0.71582c-0.390625-0.178223-0.8125-0.267578-1.265625-0.267578
		c-0.375977,0-0.725586,0.069824-1.048828,0.209473c-0.323242,0.140137-0.602539,0.335449-0.838867,0.585938
		c-0.236328,0.250977-0.421875,0.544922-0.556641,0.882324C149.451172,14.442058,149.384766,14.803874,149.384766,15.189128z"/>
	<path class="st0" d="M157.107422,18.848307v-7.245605h1.070312v0.838379c0.279297-0.327637,0.609375-0.573242,0.991211-0.737305
		c0.380859-0.164062,0.806641-0.246094,1.279297-0.246094c0.829102,0,1.504883,0.260254,2.025391,0.78125
		c0.520508,0.520508,0.780273,1.195312,0.780273,2.024902v4.584472h-1.055664v-4.367675
		c0-0.63623-0.180664-1.142578-0.541992-1.518555s-0.855469-0.563965-1.482422-0.563965
		c-0.424805,0-0.80957,0.096191-1.157227,0.289062c-0.34668,0.192871-0.626953,0.467773-0.838867,0.824219v5.336913H157.107422z"/>
	<path class="st0" d="M164.728516,15.217937c0-0.510742,0.091797-0.992676,0.275391-1.446289
		c0.182617-0.452637,0.433594-0.848145,0.751953-1.185547s0.696289-0.60498,1.134766-0.802734
		c0.439453-0.197754,0.90918-0.296387,1.410156-0.296387c0.482422,0,0.933594,0.098633,1.352539,0.296387
		c0.419922,0.197754,0.78125,0.462891,1.084961,0.79541s0.544922,0.728027,0.722656,1.186035
		c0.178711,0.458008,0.267578,0.942383,0.267578,1.453125v0.333008h-5.943359c0.076172,0.713378,0.370117,1.30664,0.881836,1.778808
		c0.510742,0.472656,1.123047,0.708496,1.836914,0.708496c0.375977,0,0.742188-0.057617,1.098633-0.17334
		s0.65625-0.279785,0.897461-0.491699l0.665039,0.708496c-0.415039,0.308594-0.841797,0.535156-1.280273,0.679688
		s-0.913086,0.217285-1.424805,0.217285c-0.520508,0-1.009766-0.09668-1.467773-0.289551s-0.853516-0.45752-1.185547-0.79541
		c-0.333008-0.337402-0.595703-0.734863-0.788086-1.193359C164.825195,16.242838,164.728516,15.748698,164.728516,15.217937z
		 M168.272461,12.426921c-0.636719,0-1.181641,0.216797-1.634766,0.650879c-0.453125,0.433594-0.727539,0.973633-0.824219,1.619629
		h4.844727c-0.095703-0.63623-0.368164-1.173828-0.816406-1.612305C169.393555,12.646159,168.870117,12.426921,168.272461,12.426921
		z"/>
	<path class="st0" d="M173.204102,18.848307v-7.245605h1.070312v0.997559c0.241211-0.404785,0.542969-0.69873,0.904297-0.882324
		c0.361328-0.182617,0.730469-0.274414,1.106445-0.274414c0.154297,0,0.28418,0.009766,0.390625,0.028809
		c0.105469,0.019531,0.207031,0.043457,0.303711,0.072266v0.983398c-0.09668-0.028809-0.209961-0.057617-0.339844-0.086914
		c-0.130859-0.028809-0.267578-0.042969-0.413086-0.042969c-0.385742,0-0.753906,0.11084-1.105469,0.33252
		c-0.352539,0.22168-0.634766,0.602539-0.84668,1.142578v4.975097H173.204102z"/>
</g>
<path class="st0" d="M25.532677,15.982608h0.985119v6.56747h-0.985119V15.982608z"/>
<path class="st0" d="M27.737469,17.774229h0.93821v0.478127c0.379295-0.380098,0.89852-0.587004,1.435282-0.571947
	c1.097887,0,1.857475,0.769512,1.857475,1.867397v3.002272H31.04015v-2.845303c0-0.741547-0.451061-1.210651-1.191706-1.210651
	c-0.472509-0.014128-0.917747,0.220821-1.172762,0.618858v3.434389h-0.93821L27.737469,17.774229z"/>
<path class="st0" d="M33.502949,18.562685h-1.018497v-0.788456h1.018497v-1.219675l0.928288-0.225531v1.443399h1.407318v0.788458
	h-1.407318v2.587294c0,0.48805,0.197567,0.666672,0.703659,0.666672c0.233353,0.00666,0.465816-0.031624,0.684711-0.112766v0.787554
	c-0.288952,0.088812-0.589043,0.136194-0.8913,0.140732c-0.928288,0-1.425358-0.440237-1.425358-1.262976V18.562685z"/>
<path class="st0" d="M38.601761,17.699352c1.313492,0,2.308537,1.087961,2.308537,2.495277v0.270638h-3.771786
	c0.119915,0.795784,0.809212,1.380667,1.613903,1.369427c0.439846,0.009459,0.868694-0.13797,1.209751-0.415882l0.600815,0.591795
	c-0.521206,0.424051-1.176735,0.647999-1.848454,0.631487c-1.407314,0-2.505199-1.08255-2.505199-2.476334
	C36.209324,18.787313,37.251278,17.699352,38.601761,17.699352z M37.147533,19.763412h2.833576
	c-0.13171-0.731623-0.703655-1.276506-1.398293-1.276506C37.851192,18.486906,37.291874,19.012846,37.147533,19.763412z"/>
<path class="st0" d="M41.604031,20.138697c0-1.370327,1.059998-2.449268,2.420403-2.449268
	c0.512825-0.001427,1.011509,0.168081,1.41724,0.481735v-0.396935h0.929188v4.817347c0,1.257561-0.78846,1.933252-2.186752,1.933252
	c-0.670414,0.008348-1.332047-0.153025-1.923332-0.469105l0.366264-0.731623c0.541275,0.281462,1.022106,0.412271,1.529102,0.412271
	c0.835369,0,1.275608-0.384306,1.275608-1.134874v-0.516014c-0.401466,0.329927-0.905724,0.50897-1.425358,0.506092
	C42.65501,22.591576,41.604031,21.509026,41.604031,20.138697z M44.118252,21.771544
	c0.49733,0.013981,0.976357-0.188025,1.313496-0.553905v-2.157883c-0.337139-0.365879-0.816166-0.567884-1.313496-0.553904
	c-0.902122,0-1.594955,0.713581-1.594955,1.632847s0.694637,1.632845,1.594959,1.632845H44.118252z"/>
<path class="st0" d="M47.458824,17.774229h0.93821v0.590891c0.287262-0.438988,0.778992-0.700678,1.30357-0.693733
	c0.16589-0.005001,0.331291,0.020376,0.488052,0.074875v0.844391c-0.180199-0.06699-0.370686-0.102097-0.562927-0.103745
	c-0.49707,0-0.966175,0.244476-1.228691,0.863333v3.199837h-0.938213V17.774229z"/>
<path class="st0" d="M50.57296,21.17975c0-0.956253,0.811909-1.454226,1.933254-1.454226
	c0.447941-0.002001,0.891552,0.087645,1.303574,0.26342v-0.506994c0-0.675692-0.403248-1.013084-1.162842-1.013084
	c-0.460083,0-0.929188,0.14073-1.482189,0.40325l-0.347321-0.703659c0.675694-0.319351,1.294552-0.488049,1.96032-0.488049
	c1.229595,0,1.952198,0.600815,1.952198,1.707722v3.157438H53.80978v-0.405056c-0.41227,0.338297-0.902126,0.49707-1.482189,0.49707
	C51.286541,22.633974,50.57296,22.034061,50.57296,21.17975z M52.543198,21.940241
	c0.462769,0.01403,0.913795-0.147051,1.262978-0.451063v-0.835367c-0.37883-0.197161-0.801823-0.294058-1.228695-0.281462
	c-0.65675,0-1.106911,0.290483-1.106911,0.788458C51.474182,21.630812,51.915318,21.940241,52.543198,21.940241z"/>
<path class="st0" d="M56.24913,18.562685h-1.013092v-0.788456h1.013084v-1.219675l0.929188-0.225531v1.443399h1.403713v0.788458
	h-1.407314v2.587294c0,0.48805,0.196663,0.666672,0.703659,0.666672c0.233353,0.006662,0.465816-0.031622,0.684715-0.112766
	v0.787554c-0.288952,0.088812-0.589043,0.136194-0.8913,0.140732c-0.928284,0-1.426258-0.440237-1.426258-1.262976
	L56.24913,18.562685z"/>
<path class="st0" d="M59.157581,16.422844c0.001976-0.320391,0.261478-0.579492,0.581871-0.580969
	c0.321106,0.012652,0.571163,0.283218,0.558514,0.604326c-0.011955,0.30337-0.255142,0.54656-0.558514,0.558514
	C59.418709,17.003233,59.159061,16.743587,59.157581,16.422844z M60.205849,22.550076h-0.938213v-4.775846h0.938213V22.550076z"/>
<path class="st0" d="M63.577087,17.680407c1.370628,0.002495,2.479721,1.115631,2.477219,2.486259
	c-0.002487,1.370628-1.115623,2.479719-2.486252,2.477224c-1.370632-0.002497-2.479721-1.115633-2.477226-2.486261
	c0-0.000597,0.000004-0.001194,0.000004-0.001791c-0.014095-1.353119,1.071396-2.461468,2.424511-2.475567
	C63.535927,17.680058,63.556507,17.680101,63.577087,17.680407z M63.577087,18.50585c-0.873253,0-1.56699,0.721701-1.56699,1.651791
	s0.684715,1.660812,1.56699,1.660812c0.882278,0,1.566086-0.732525,1.566086-1.660812s-0.697334-1.651789-1.566086-1.651789
	V18.50585z"/>
<path class="st0" d="M66.935699,17.774229h0.93821v0.478127c0.379295-0.380098,0.898521-0.587004,1.43528-0.571947
	c1.097885,0,1.857475,0.769512,1.857475,1.867397v3.002272H70.23838v-2.845303c0-0.741547-0.451057-1.210651-1.191704-1.210651
	c-0.472511-0.014128-0.917755,0.220821-1.172768,0.618858v3.434389h-0.93821V17.774229z"/>
<path class="st1" d="M16.543001,10.412889c1.128559,0,2.761404-0.232749,2.761404-1.57511
	c0.003374-0.1036-0.006018-0.207222-0.027966-0.308527l-0.672083-2.919276c-0.155165-0.642313-0.291386-0.9337-1.419041-1.497528
	c-0.877769-0.448356-2.783958-1.187196-3.348689-1.187196c-0.525037,0-0.681105,0.680202-1.303571,0.680202
	c-0.602619,0-1.050073-0.50519-1.613901-0.50519c-0.541275,0-0.894006,0.368969-1.166448,1.127656
	c0,0-0.758687,2.13984-0.856116,2.450171C8.880497,6.734984,8.873196,6.794003,8.87494,6.853103
	C8.87494,7.684862,12.15236,10.412889,16.543001,10.412889 M19.479418,9.382662
	c0.156069,0.73884,0.156069,0.816423,0.156069,0.913852c0,1.262976-1.419947,1.963926-3.286442,1.963926
	c-4.226456-0.000902-7.917951-2.470018-7.917951-4.102864C8.43085,7.930165,8.477211,7.705117,8.567315,7.496318
	c-1.517374,0.076681-3.4813,0.349123-3.4813,2.079398c0,2.83989,6.72895,6.340135,12.056899,6.340135
	c4.084822,0,5.115049-1.847552,5.115049-3.306289c0-1.147503-0.992338-2.450171-2.781252-3.227802"/>
<path d="M19.476713,9.38176c0.156067,0.73884,0.156067,0.816423,0.156067,0.913852c0,1.262975-1.419945,1.963926-3.286442,1.963926
	c-4.223749,0-7.915244-2.469116-7.915244-4.101962C8.43085,7.930165,8.477211,7.705117,8.567315,7.496318l0.330177-0.817325
	C8.881185,6.735549,8.87358,6.794258,8.87494,6.853103c0,0.831759,3.27742,3.559785,7.668061,3.559785
	c1.128559,0,2.761404-0.232749,2.761404-1.57511c0.003374-0.1036-0.006018-0.207222-0.027966-0.308527L19.476713,9.38176z"/>
<path class="st0" d="M57.340698,11.251864c0,1.072627,0.645023,1.594055,1.821392,1.594055
	c0.362186-0.009017,0.722118-0.059875,1.072628-0.151557v-1.243129c-0.22403,0.070996-0.457832,0.106311-0.692833,0.104647
	c-0.48444,0-0.663963-0.151557-0.663963-0.60713V9.041658h1.403709V7.760641h-1.403709V6.136816l-1.533611,0.331982v1.291843
	H56.32671v1.281018h1.014893L57.340698,11.251864z M52.559437,11.280732c0-0.331982,0.332886-0.493462,0.835369-0.493462
	c0.307137,0.001785,0.61298,0.039941,0.911144,0.113667v0.64502c-0.293034,0.160037-0.622398,0.241757-0.956249,0.237259
	c-0.492565,0-0.787556-0.189446-0.787556-0.502484 M53.03125,12.864863c0.541275,0,0.977909-0.113667,1.385666-0.388815v0.304016
	h1.517372V9.563087c0-1.223282-0.824543-1.894462-2.200283-1.894462c-0.768612,0-1.528198,0.180425-2.345524,0.550296
	l0.550293,1.129459c0.588188-0.247182,1.08255-0.398739,1.518276-0.398739c0.631489,0,0.958057,0.246281,0.958057,0.749666v0.24628
	c-0.371792-0.096241-0.75444-0.144148-1.138481-0.142535c-1.290939,0-2.068573,0.541274-2.068573,1.509254
	c0,0.882278,0.701859,1.555264,1.821392,1.555264 M44.690201,12.78277h1.631947V10.18014h2.732536v2.599924h1.631943V6.13862
	h-1.628338v2.552112h-2.732533V6.13862H44.69381L44.690201,12.78277z M38.475464,10.265842
	c0-0.721701,0.569241-1.271996,1.318905-1.271996c0.39064-0.008364,0.770084,0.130788,1.062702,0.389718v1.751024
	c-0.286919,0.269259-0.669479,0.412801-1.062702,0.398739c-0.739742,0-1.318905-0.550296-1.318905-1.271093 M40.876015,12.776456
	h1.518276V5.806638L40.86068,6.13862v1.888148c-0.390408-0.221329-0.832256-0.335836-1.281021-0.331982
	c-1.460541,0-2.608944,1.128558-2.608944,2.571056c-0.018944,1.407372,1.106598,2.563629,2.513969,2.582573
	c0.01482,0.0002,0.02964,0.00027,0.04446,0.000211c0.483967,0.002308,0.955959-0.150387,1.34687-0.435726V12.776456z
	 M33.912514,8.924382c0.483536,0,0.8913,0.313037,1.05278,0.796576h-2.09383c0.151554-0.502483,0.531353-0.796576,1.043758-0.796576
	 M31.322514,10.274863c0,1.461442,1.195316,2.599924,2.731632,2.599924c0.844391,0,1.461445-0.228238,2.097443-0.759589
	l-1.015793-0.902125c-0.237259,0.247183-0.588184,0.379795-1.004971,0.379795c-0.53648,0.01511-1.026951-0.301473-1.234104-0.796576
	h3.576923v-0.378892c0-1.594055-1.071724-2.741558-2.533165-2.741558c-1.423283-0.021476-2.594488,1.114912-2.615961,2.538193
	c-0.000309,0.020275-0.000376,0.040553-0.000202,0.060829 M28.675678,7.533306c0.541275,0,0.844389,0.341003,0.844389,0.749666
	s-0.304016,0.749666-0.844389,0.749666h-1.612997V7.533306H28.675678z M25.42803,12.780065h1.631943v-2.419499h1.242226
	l1.253052,2.419498h1.821392l-1.461445-2.656758c0.759836-0.309021,1.255495-1.048939,1.25215-1.869203
	c0-1.195316-0.939112-2.115483-2.345524-2.115483h-3.391087L25.42803,12.780065z"/>
</svg>
